<svg xmlns="http://www.w3.org/2000/svg" viewBox="0 0 240 320" width="240" height="320" fill="none">
  <!-- Dark background -->
  <!-- <rect width="240" height="320" rx="0" fill="#18181B"/> -->
  <polygon points="120,18 78,58 104,64" fill="#fff" opacity="0.9"/>
  <polygon points="120,18 162,58 136,64" fill="#fff" opacity="0.7"/>
  <polygon points="78,58 86,82 104,64" fill="#fff" opacity="0.75"/>
  <polygon points="162,58 154,82 136,64" fill="#fff" opacity="0.6"/>
  <polygon points="104,64 136,64 120,72" fill="#fff" opacity="0.95"/>
  <polygon points="104,64 136,64 154,82 142,94 98,94 86,82" fill="#fff" opacity="0.08"/>
  <circle cx="108" cy="84" r="3.5" fill="#fff"/>
  <circle cx="132" cy="84" r="3.5" fill="#fff"/>
  <polygon points="78,58 44,88 68,78 86,82" fill="#fff" opacity="0.8"/>
  <polygon points="44,88 52,96 86,82" fill="#fff" opacity="0.5"/>
  <polygon points="162,58 196,88 172,78 154,82" fill="#fff" opacity="0.65"/>
  <polygon points="196,88 188,96 154,82" fill="#fff" opacity="0.45"/>
  <polygon points="44,88 52,96 48,158 30,170" fill="#fff" opacity="0.6"/>
  <polygon points="30,170 48,158 38,230 20,248" fill="#fff" opacity="0.45"/>
  <polygon points="52,96 86,82 74,158 48,158" fill="#fff" opacity="0.7"/>
  <polygon points="48,158 74,158 64,240 38,230" fill="#fff" opacity="0.55"/>
  <polygon points="86,82 98,94 88,158 74,158" fill="#fff" opacity="0.65"/>
  <polygon points="74,158 88,158 80,250 64,240" fill="#fff" opacity="0.55"/>
  <polygon points="98,94 142,94 148,158 92,158" fill="#fff" opacity="0.85"/>
  <polygon points="92,158 148,158 138,270 102,270" fill="#fff" opacity="0.75"/>
  <line x1="120" y1="94" x2="120" y2="270" stroke="#fff" stroke-width="0.8" opacity="0.15"/>
  <polygon points="142,94 154,82 166,158 148,158" fill="#fff" opacity="0.55"/>
  <polygon points="148,158 166,158 160,250 138,270" fill="#fff" opacity="0.48"/>
  <polygon points="154,82 188,96 192,158 166,158" fill="#fff" opacity="0.5"/>
  <polygon points="166,158 192,158 184,240 160,250" fill="#fff" opacity="0.42"/>
  <polygon points="188,96 196,88 210,170 192,158" fill="#fff" opacity="0.45"/>
  <polygon points="210,170 192,158 202,230 220,248" fill="#fff" opacity="0.35"/>
  <polygon points="20,248 38,230 30,260" fill="#fff" opacity="0.3"/>
  <polygon points="38,230 64,240 52,262" fill="#fff" opacity="0.38"/>
  <polygon points="64,240 80,250 72,268" fill="#fff" opacity="0.35"/>
  <polygon points="80,250 102,270 92,278" fill="#fff" opacity="0.42"/>
  <polygon points="102,270 138,270 120,290" fill="#fff" opacity="0.5"/>
  <polygon points="138,270 160,250 148,268" fill="#fff" opacity="0.38"/>
  <polygon points="160,250 184,240 172,262" fill="#fff" opacity="0.32"/>
  <polygon points="184,240 202,230 194,258" fill="#fff" opacity="0.28"/>
  <polygon points="202,230 220,248 210,260" fill="#fff" opacity="0.25"/>
  <polygon points="52,76 38,92 56,88" fill="#fff" opacity="0.5"/>
  <polygon points="188,76 202,92 184,88" fill="#fff" opacity="0.42"/>
  <line x1="48" y1="158" x2="192" y2="158" stroke="#fff" stroke-width="0.5" opacity="0.1"/>
</svg>
